<?xml version="1.0" encoding="UTF-8"?>
<!DOCTYPE svg PUBLIC "-//W3C//DTD SVG 1.1//EN" "http://www.w3.org/Graphics/SVG/1.1/DTD/svg11.dtd">
<svg xmlns="http://www.w3.org/2000/svg" xmlns:svg="http://www.w3.org/2000/svg" version="1.1"
  width="1em" height="1em" viewBox="0 0 60 60">
  <defs>
    <style type="text/css">
      path{stroke:gray;stroke-width:3;stroke-linecap:round;fill:none}
      #lf>g{transform-origin:top center}
      #lfr{animation:lfr 5s infinite}
      #lfl{animation:lfl 5s infinite}
      @keyframes lfr{
        0%, 100%{transform:rotate(0deg) translateX(0)}
        25%, 75%{transform:rotate(45deg) translateX(calc(100% / 6))}
        50%{transform:rotate(0deg) translateX(calc(100% / -3))}}
      @keyframes lfl{
        0%, 100%{transform:rotate(0deg) translateX(0)}
        25%, 75%{transform:rotate(-45deg) translateX(calc(100% / -6))}
        50%{transform:rotate(0deg) translateX(calc(100% / 3))}}
    </style>
  </defs>
  <g id="lf">
    <g id="lfl">
      <path d="M30 50c-11,0 -20,-9 -20,-20 M10 30c11,0 20,9 20,20"/>
      <path d="M10 30c0,-11 9,-20 20,-20 M30 10c0,11 -9,20 -20,20"/>
    </g>
    <g id="lfr">
      <path d="M30 10c11,0 20,9 20,20 M50 30c-11,0 -20,-9 -20,-20"/>
      <path d="M50 30c0,11 -9,20 -20,20 M30 50c0,-11 9,-20 20,-20"/>
    </g>
  </g>
</svg>
